<svg width="1168" height="318" viewBox="0 0 1168 318" fill="none" xmlns="http://www.w3.org/2000/svg">
<rect x="0.800049" width="1166.4" height="318" rx="20" fill="#198754"/>
<mask id="mask0_36_63" style="mask-type:alpha" maskUnits="userSpaceOnUse" x="0" y="0" width="1168" height="318">
<rect x="0.800049" width="1166.4" height="318" rx="20" fill="#FD7E14"/>
</mask>
<g mask="url(#mask0_36_63)">
<path opacity="0.2" d="M-31.238 -216.961C25.7831 -250.947 91.423 -236.228 115.876 -185.578C140.328 -134.928 115.059 -66.0254 58.0381 -32.0395C1.01703 1.94646 -64.6228 -12.7725 -89.0755 -63.4221C-113.528 -114.072 -88.2591 -182.975 -31.238 -216.961Z" fill="#198754" stroke="#F1F5F9" stroke-width="7"/>
<path d="M1157.3 300.5C1224.76 300.5 1278.9 350.482 1278.9 411.5C1278.9 472.518 1224.76 522.5 1157.3 522.5C1089.84 522.5 1035.7 472.518 1035.7 411.5C1035.7 350.482 1089.84 300.5 1157.3 300.5Z" fill="#198754" stroke="white" stroke-width="7"/>
</g>
</svg>
